sreens;
 
http://imgcum.com/img-5086f36a1a3de.html
 
http://imgcum.com/img-5086f3aa306b4.html

Video
ID                                       : 1
Format                                   : AVC
Format/Info                              : Advanced Video Codec
Format profile                           : High@L5.0
Format settings, CABAC                   : Yes
Format settings, ReFrames                : 5 frames
Codec ID                                 : avc1
Codec ID/Info                            : Advanced Video Coding
Duration                                 : 1h 27mn
Bit rate                                 : 6 000 Kbps
Width                                    : 1 920 pixels
Height                                   : 1 080 pixels
Display aspect ratio                     : 16:9
Frame rate mode                          : Constant
Frame rate                               : 23.976 fps
Color space                              : YUV
Chroma subsampling                       : 4:2:0
Bit depth                                : 8 bits
Scan type                                : Progressive
Bits/(Pixel*Frame)                       : 0.121
Stream size                              : 3.57 GiB (93%)
Writing library                          : x264 core 114 r1913 5fd3dce

Audio
ID                                       : 2
Format                                   : AAC
Format/Info                              : Advanced Audio Codec
Format profile                           : LC
Codec ID                                 : 40
Duration                                 : 1h 27mn
Bit rate mode                            : Variable
Bit rate                                 : 165 Kbps
Channel(s)                               : 2 channels
Channel positions                        : Front: L R
Sampling rate                            : 48.0 KHz
Compression mode                         : Lossy
Stream size                              : 103 MiB (3%)
Tagged date                              : UTC 2012-09-27 22:10:52